<?xml version="1.0" encoding="utf-8"?>
<!-- Generator: Adobe Illustrator 27.3.1, SVG Export Plug-In . SVG Version: 6.00 Build 0)  -->
<svg version="1.1" id="Layer_1" xmlns="http://www.w3.org/2000/svg" xmlns:xlink="http://www.w3.org/1999/xlink" x="0px" y="0px"
	 viewBox="0 0 46 50" fill="#4c00b0" style="enable-background:new 0 0 46 50;" xml:space="preserve" height="50" width="45">
<style type="text/css">
	.st0{fill-rule:evenodd;clip-rule:evenodd;}
</style>
<path class="st0" d="M9.33,0.17c2.83-0.11,5.7,0.61,8.41,1.99C16.85,7.43,16,12.86,15.12,18.14c-4.05-4.8-8.14-9.76-12.18-14.56
	C5.22,1.5,6.19,0.55,9.33,0.17z"/>
<path class="st0" d="M19.05,2.56c3.44,4.16,7.01,8.53,10.46,12.7c-7.35,1.99-8.44,2.26-13.29,3.53
	C16.78,15.65,17.2,13.46,19.05,2.56z"/>
<path class="st0" d="M33.12,0.45c-1,4.47-2.05,9.06-3.04,13.55c-3.08-3.76-6.19-7.68-9.27-11.44c2.66,0.01,4.84,0.14,6.4-0.24
	C29.21,1.83,30.02,1.21,33.12,0.45z"/>
<path class="st0" d="M46,10.87c-9.33,2.49-8.44,2.29-14.72,3.89c1.08-4.85,2.2-9.75,3.28-14.6C37.88-0.84,45.9,2.71,46,10.87z"/>
<path class="st0" d="M45.92,12.29c-0.55,5.26-2.26,8.45-5.37,14.52c-2.45-3.13-4.58-5.34-8.78-10.75
	C36.8,14.68,37.35,14.6,45.92,12.29z"/>
<path class="st0" d="M30.7,16.88c4.4,5.27,6.6,8.36,9.23,11.48c-5.39,1.89-10.9,3.87-16.28,5.76C26.77,26.83,27.16,25.81,30.7,16.88
	z"/>
<path class="st0" d="M29.43,16.68c-2.93,7.14-3.46,8.4-7.01,16.87c-2.79-6.35-3.3-7.38-6.03-13.47
	C22.95,18.32,23.74,18.15,29.43,16.68z"/>
<path class="st0" d="M15.24,20.73c2.34,5.27,3.68,8.35,5.87,13.1c-7.77-2.91-8.91-3.26-14.85-5.44
	C10.14,25.11,11.15,24.25,15.24,20.73z"/>
<path class="st0" d="M2.03,4.59c4.54,5.26,7.4,9.11,12.47,15.05c-2.99,2.47-5.87,4.95-8.86,7.42C1.23,20.32-2.43,9.68,2.03,4.59z"/>
<path class="st0" d="M39.11,31.72c-0.11,2.51-0.23,4.9-0.45,7.5c-0.23,2.78-0.5,5.56-1.35,7.22c-3.34-1.61-6.83-3.29-9.97-4.87
	C31.25,38.27,35.2,35.04,39.11,31.72z"/>
<path class="st0" d="M27.95,43.49c2.88,1.39,5.77,2.79,8.65,4.18C33.5,53.21,28.58,47.48,27.95,43.49z"/>
<path class="st0" d="M6.95,32.82c3.4,4.29,6.77,8.65,10.17,12.94c-0.01,1.38-2.51,3.75-3.65,4.1C7.99,51.55,6.81,38.03,6.95,32.82z"
	/>
<path class="st0" d="M6.63,30.06c5.3,2.02,9.12,3.15,14.85,5.23c-2.02,1.55-1.57,2.5-3.73,9.37C14.12,39.82,10.25,34.9,6.63,30.06z"
	/>
<path class="st0" d="M39.07,30.1c-4,3.25-8.36,6.81-12.26,10.06c-0.15-2.48-0.75-3.79-2.38-4.91C31.87,32.74,32.26,32.56,39.07,30.1
	z"/>
</svg>
